<?xml version="1.0" encoding="utf-8"?>
<!-- Generator: Adobe Illustrator 16.0.0, SVG Export Plug-In . SVG Version: 6.00 Build 0)  -->
<!DOCTYPE svg PUBLIC "-//W3C//DTD SVG 1.1//EN" "http://www.w3.org/Graphics/SVG/1.1/DTD/svg11.dtd">
<svg version="1.1" id="Layer_1" xmlns="http://www.w3.org/2000/svg" xmlns:xlink="http://www.w3.org/1999/xlink" x="0px" y="0px"
	 width="792px" height="612px" viewBox="0 0 792 612" enable-background="new 0 0 792 612" xml:space="preserve">
<g>
	<defs>
		<path id="SVGID_1_" d="M341.348,301.481c-0.426,0.617-0.125,1.732,0,2.746C341.473,303.214,341.774,302.099,341.348,301.481z
			 M341.348,311.176c0.21-1.999,0.284-4.159,0-5.775C341.064,307.017,341.137,309.177,341.348,311.176z M350.42,280.972
			c-0.188,0.335-0.376,0.669-0.563,1.003c-0.007,0.897-0.73,3.839-1.214,4.653c-0.301,0.51-0.628,1.125-0.984,1.732l-2.05,2.393
			c0,0.005,0.001,0.007,0.002,0.01c0,0-1.221,1.01-1.566,2.311c-0.891,1.877,0.606,3.808,0.254,5.922
			c-0.056,1.099-0.113,2.199-0.169,3.298c-0.226,0.933-0.452,1.862-0.677,2.792c0.028,1.27,0.189,2.897,0.084,3.807
			c-0.105,0.908-1.19,2.878-1.439,4.145c0.113,0.311,0.013,0.482,0.101,0.725c0.098,2.12-0.222,2.435-0.735,2.917h-0.085h-0.063
			h-0.084c-0.513-0.482-0.833-0.797-0.734-2.917c0.088-0.242-0.014-0.414,0.101-0.725c-0.25-1.267-1.334-3.236-1.44-4.145
			c-0.106-0.909,0.056-2.537,0.085-3.807c-0.226-0.93-0.452-1.859-0.678-2.792c-0.056-1.099-0.113-2.199-0.168-3.298
			c-0.353-2.114,1.145-4.045,0.253-5.922c-0.344-1.301-1.564-2.311-1.564-2.311c0.001-0.003,0.002-0.005,0.002-0.01l-2.05-2.393
			c-0.357-0.607-0.684-1.223-0.984-1.732c-0.484-0.814-1.208-3.756-1.215-4.653c-0.188-0.334-0.376-0.668-0.563-1.003
			c-0.049-0.449-0.011-0.89,0.546-1.797c0.178-0.337,0.126-0.003,0.189-0.007c0.065,0.644-0.064,1.011,0.316,1.542
			c0.078,0.035,0.153,0.069,0.23,0.105c0.067-0.299,0.039-0.53,0.014-0.739c0.075-0.026,0.159,0.229,0.235,0.201
			c0.162,0.663-0.18,0.978-0.168,1.785c0.007,0.465,1.88,3.327,1.882,4.215c1.263,0.778,0.937,1.217,1.598,1.738
			c0.495,0.391,0.917,0.574,1.273,0.793c0.692-0.371,1.199-0.573,1.869-0.726c0.067-1.962-0.727-1.914-0.086-3.299
			c0.224-0.499,0.519-0.885,1.143-0.927v-0.004h0.001l0,0c0.01,0.002,0.02,0.002,0.031,0.002c0.01,0,0.021,0,0.031-0.002l0,0l0,0
			v0.004c0.626,0.042,0.921,0.428,1.143,0.927c0.643,1.385-0.151,1.337-0.084,3.299c0.67,0.152,1.176,0.354,1.869,0.726
			c0.356-0.219,0.777-0.402,1.272-0.793c0.662-0.521,0.335-0.96,1.599-1.738c0.001-0.888,1.875-3.75,1.882-4.215
			c0.012-0.808-0.331-1.122-0.168-1.785c0.074,0.028,0.159-0.228,0.233-0.201c-0.024,0.209-0.052,0.44,0.015,0.739
			c0.076-0.036,0.154-0.07,0.229-0.105c0.381-0.531,0.25-0.898,0.317-1.542c0.063,0.004,0.01-0.33,0.189,0.007
			C350.432,280.082,350.47,280.522,350.42,280.972z M333.214,289.754c-1.58,1.775-2.587,4.071-2.733,6.597
			c1.485-1.175,3.282-1.763,5.08-1.763C334.289,293.318,333.433,291.634,333.214,289.754z M328.125,291.511
			c0.067,1.579,0.634,3.14,1.701,4.426c0.217-2.405,1.171-4.599,2.634-6.353C330.795,289.739,329.289,290.442,328.125,291.511z
			 M325.718,296.987c0,1.807,0.643,3.459,1.712,4.748c0.222-1.736,1-3.413,2.333-4.747c0,0,0-0.001,0.001-0.001
			c-1.333-1.333-2.112-3.011-2.334-4.745C326.36,293.529,325.718,295.184,325.718,296.987z M332.46,304.393
			c-1.463-1.753-2.417-3.947-2.634-6.354c-1.067,1.286-1.634,2.849-1.701,4.427C329.289,303.534,330.795,304.237,332.46,304.393z
			 M330.297,308.039c1.276,1.277,2.901,1.992,4.569,2.146c-1.07-1.384-1.708-3.12-1.708-5.006c-1.886,0-3.624-0.636-5.009-1.707
			C328.305,305.139,329.021,306.764,330.297,308.039z M335.561,299.389c-1.798,0-3.595-0.589-5.08-1.763
			c0.146,2.525,1.154,4.821,2.733,6.597C333.433,302.341,334.289,300.657,335.561,299.389z M334.713,288.359
			c-0.204,0.158-0.402,0.322-0.595,0.492c0.417,0.049,0.825,0.129,1.221,0.238l1.007,1.177c-0.738-0.351-1.543-0.583-2.391-0.673
			c0.221,2.068,1.291,3.885,2.854,5.092c0.593,0.09,1.179,0.247,1.744,0.468c-0.061,0.41-0.16,0.824-0.255,1.246
			c-0.64-0.258-1.24-0.593-1.788-0.996c-1.959-0.25-4,0.277-5.618,1.585c1.619,1.308,3.659,1.835,5.618,1.584
			c0.479-0.353,0.997-0.651,1.546-0.894c-0.05,0.431-0.059,0.871,0.017,1.314c-0.415,0.135-0.837,0.233-1.262,0.298
			c-1.564,1.208-2.634,3.022-2.855,5.092c1.662-0.177,3.16-0.9,4.311-1.987c0.067,0.276,0.135,0.556,0.202,0.833
			c-1.201,1.022-2.7,1.703-4.35,1.896c1.316,1.171,2.919,2.027,4.69,2.451c-0.007,0.245-0.011,0.48-0.008,0.698
			c-1.817-0.408-3.472-1.245-4.854-2.396c0.156,1.663,0.859,3.17,1.93,4.334c1.06-0.045,2.111-0.315,3.077-0.812
			c0.067,0.218,0.156,0.46,0.258,0.716c-0.827,0.411-1.708,0.675-2.606,0.788c0.994,0.825,2.205,1.396,3.535,1.614
			c0.056,0.182,0.102,0.355,0.134,0.518c-0.036,0.097-0.05,0.181-0.056,0.257c-1.808-0.25-3.428-1.091-4.659-2.32
			c-2.097,0-4.195-0.8-5.796-2.4c-1.6-1.599-2.4-3.695-2.4-5.791c-1.483-1.484-2.401-3.53-2.401-5.794
			c0-2.262,0.917-4.31,2.401-5.792c0-2.096,0.8-4.192,2.401-5.791c0.873-0.874,1.895-1.507,2.983-1.904
			c0.052,0.24,0.11,0.489,0.174,0.739c-0.957,0.363-1.854,0.927-2.623,1.697c-1.277,1.277-1.992,2.9-2.147,4.567
			c1.384-1.07,3.122-1.707,5.008-1.707c0-0.882,0.14-1.73,0.396-2.525c0.061,0.144,0.12,0.264,0.175,0.356
			c0.113,0.19,0.229,0.396,0.348,0.61c-0.06,0.281-0.104,0.568-0.132,0.86c0.14-0.115,0.282-0.227,0.426-0.336
			C334.482,287.96,334.596,288.161,334.713,288.359z M336.781,287.106c-0.106-0.159-0.253-0.329-0.495-0.521
			c1.029-0.503,2.147-0.857,3.321-1.034c-0.029,0.251,0.011,0.455,0.073,0.68C338.661,286.388,337.688,286.686,336.781,287.106z
			 M347.842,283.79c0.013,0.017,0.027,0.035,0.04,0.052c-0.132,0.248-0.266,0.502-0.391,0.748c-0.2-0.29-0.419-0.565-0.658-0.824
			c-1.36,0.058-2.706,0.486-3.875,1.284c-0.031-0.082-0.068-0.171-0.113-0.266c-0.067-0.151-0.141-0.292-0.229-0.414
			c1.066-0.71,2.262-1.143,3.485-1.3c-1.288-1.069-2.943-1.713-4.748-1.713c-1.806,0-3.46,0.644-4.749,1.713
			c1.221,0.157,2.413,0.589,3.477,1.293c-0.089,0.126-0.164,0.268-0.232,0.421c-0.043,0.093-0.08,0.179-0.11,0.259
			c-1.168-0.795-2.51-1.222-3.865-1.277c-0.241,0.263-0.463,0.541-0.665,0.835c-0.125-0.247-0.259-0.501-0.391-0.748
			c0.016-0.021,0.031-0.042,0.047-0.062c-0.026,0.004-0.05,0.005-0.075,0.009c-0.134-0.25-0.266-0.492-0.381-0.715
			c0.381-0.052,0.766-0.08,1.149-0.08c1.482-1.482,3.532-2.399,5.795-2.399c2.263,0,4.313,0.917,5.795,2.399
			c0.38,0,0.761,0.026,1.138,0.08c-0.116,0.221-0.247,0.463-0.38,0.713C347.885,283.795,347.863,283.794,347.842,283.79z
			 M346.415,286.58c-0.242,0.193-0.389,0.363-0.498,0.521c-0.907-0.419-1.881-0.718-2.902-0.872c0.062-0.228,0.102-0.43,0.073-0.682
			C344.266,285.726,345.383,286.078,346.415,286.58z M355.278,292.24c-0.222,1.736-0.999,3.414-2.333,4.747l0,0
			c1.334,1.333,2.11,3.012,2.334,4.748c1.07-1.289,1.712-2.941,1.712-4.748C356.991,295.184,356.349,293.529,355.278,292.24z
			 M350.248,289.584c1.464,1.754,2.417,3.947,2.634,6.354c1.068-1.286,1.635-2.848,1.701-4.429
			C353.419,290.442,351.913,289.739,350.248,289.584z M349.495,289.754c-0.22,1.88-1.075,3.564-2.346,4.834
			c1.797,0,3.594,0.588,5.079,1.761C352.082,293.825,351.074,291.529,349.495,289.754z M347.149,299.389
			c1.27,1.269,2.126,2.953,2.346,4.834c1.579-1.775,2.587-4.071,2.733-6.597C350.743,298.8,348.946,299.389,347.149,299.389z
			 M354.584,302.465c-0.067-1.578-0.634-3.141-1.702-4.427c-0.216,2.406-1.17,4.602-2.634,6.354
			C351.913,304.237,353.419,303.534,354.584,302.465z M347.842,310.186c1.667-0.154,3.293-0.869,4.569-2.146
			c1.277-1.275,1.992-2.899,2.146-4.566c-1.384,1.071-3.122,1.707-5.007,1.707l0,0C349.551,307.065,348.913,308.802,347.842,310.186
			z M355.346,302.781c0,2.097-0.8,4.192-2.401,5.791c-1.6,1.601-3.698,2.4-5.796,2.4c-1.233,1.233-2.857,2.073-4.671,2.322
			c-0.006-0.077-0.02-0.162-0.056-0.259c0.032-0.162,0.077-0.334,0.132-0.515c1.335-0.217,2.551-0.79,3.548-1.617
			c-0.9-0.113-1.787-0.379-2.615-0.793c0.101-0.258,0.189-0.5,0.256-0.715c0.969,0.498,2.025,0.771,3.089,0.815
			c1.069-1.164,1.773-2.671,1.928-4.334c-1.386,1.154-3.044,1.991-4.866,2.399c0.002-0.218-0.001-0.453-0.009-0.699
			c1.776-0.422,3.382-1.281,4.703-2.454c-1.654-0.192-3.158-0.879-4.36-1.906c0.068-0.276,0.134-0.556,0.203-0.833
			c1.151,1.093,2.653,1.821,4.319,1.998c-0.22-2.068-1.29-3.884-2.853-5.092c-0.431-0.064-0.857-0.165-1.276-0.301
			c0.075-0.446,0.066-0.885,0.015-1.316c0.555,0.242,1.077,0.545,1.559,0.898c1.959,0.251,4-0.278,5.62-1.585
			c-1.62-1.307-3.66-1.834-5.62-1.584c-0.552,0.406-1.155,0.742-1.799,1c-0.095-0.42-0.195-0.834-0.255-1.245
			c0.568-0.224,1.157-0.381,1.756-0.473c1.563-1.207,2.633-3.021,2.853-5.092c-0.855,0.09-1.668,0.328-2.413,0.683l1.013-1.183
			c0.401-0.111,0.814-0.191,1.237-0.242c-0.195-0.174-0.397-0.338-0.604-0.499c0.118-0.199,0.232-0.399,0.342-0.598
			c0.148,0.111,0.293,0.228,0.435,0.344c-0.027-0.298-0.073-0.59-0.135-0.877c0.117-0.209,0.229-0.407,0.339-0.594
			c0.057-0.095,0.12-0.224,0.181-0.373c0.262,0.8,0.403,1.653,0.403,2.542l0,0c1.886,0,3.623,0.637,5.007,1.705
			c-0.155-1.665-0.871-3.288-2.146-4.565c-0.772-0.772-1.675-1.339-2.636-1.7c0.064-0.251,0.122-0.501,0.174-0.741
			c1.093,0.397,2.119,1.031,2.995,1.909c1.601,1.599,2.399,3.695,2.401,5.791c1.483,1.482,2.399,3.53,2.399,5.792
			C357.746,299.251,356.829,301.297,355.346,302.781z"/>
	</defs>
	<use xlink:href="#SVGID_1_"  overflow="visible" fill="#FFFFFF"/>
	<clipPath id="SVGID_2_">
		<use xlink:href="#SVGID_1_"  overflow="visible"/>
	</clipPath>
</g>
<rect x="254.667" y="290.667" fill="none" width="288.031" height="41.407"/>
<text transform="matrix(1 0 0 1 254.6665 304.0225)"><tspan x="0" y="0" fill="#FFFFFF" font-family="'Montserrat-Bold'" font-size="18">FAVOR     </tspan><tspan x="93.023" y="0" fill="#FFFFFF" font-family="'Montserrat-Bold'" font-size="14">    </tspan><tspan x="109.207" y="0" fill="#FFFFFF" font-family="'Montserrat-Bold'" font-size="18">FIELDS</tspan></text>
</svg>
