<?xml version="1.0" encoding="utf-8"?>
<!-- Generator: Adobe Illustrator 16.0.0, SVG Export Plug-In . SVG Version: 6.00 Build 0)  -->
<!DOCTYPE svg PUBLIC "-//W3C//DTD SVG 1.1//EN" "http://www.w3.org/Graphics/SVG/1.1/DTD/svg11.dtd">
<svg version="1.1" id="Layer_1" xmlns="http://www.w3.org/2000/svg" xmlns:xlink="http://www.w3.org/1999/xlink" x="0px" y="0px"
	 width="792px" height="612px" viewBox="0 0 792 612" enable-background="new 0 0 792 612" xml:space="preserve">
<g>
	<g>
		<path id="SVGID_2_" fill="#FFFFFF" d="M343.666,310.578c-0.426,0.617-0.125,1.732,0,2.746
			C343.791,312.311,344.091,311.196,343.666,310.578z M343.666,320.273c0.21-2,0.284-4.16,0-5.775
			C343.381,316.113,343.455,318.273,343.666,320.273z M352.737,290.069c-0.188,0.335-0.376,0.669-0.563,1.003
			c-0.007,0.896-0.73,3.839-1.214,4.652c-0.301,0.511-0.628,1.125-0.984,1.732l-2.05,2.393c0,0.006,0.001,0.008,0.002,0.011
			c0,0-1.221,1.01-1.566,2.312c-0.891,1.877,0.606,3.807,0.254,5.922c-0.056,1.099-0.113,2.198-0.169,3.297
			c-0.226,0.934-0.452,1.863-0.677,2.793c0.028,1.27,0.189,2.896,0.084,3.807c-0.105,0.908-1.19,2.879-1.439,4.145
			c0.113,0.311,0.013,0.482,0.101,0.725c0.098,2.121-0.222,2.436-0.735,2.918h-0.085h-0.063h-0.084
			c-0.513-0.482-0.833-0.797-0.734-2.918c0.088-0.24-0.014-0.414,0.101-0.725c-0.25-1.266-1.334-3.236-1.44-4.145
			s0.056-2.537,0.085-3.807c-0.226-0.93-0.452-1.859-0.678-2.793c-0.056-1.099-0.113-2.198-0.168-3.297
			c-0.353-2.115,1.145-4.045,0.253-5.922c-0.344-1.302-1.564-2.312-1.564-2.312c0.001-0.003,0.002-0.005,0.002-0.011l-2.05-2.393
			c-0.357-0.607-0.684-1.223-0.984-1.732c-0.484-0.813-1.208-3.756-1.215-4.652c-0.188-0.334-0.376-0.668-0.562-1.003
			c-0.049-0.449-0.011-0.89,0.546-1.798c0.178-0.336,0.126-0.002,0.189-0.006c0.065,0.644-0.064,1.011,0.316,1.541
			c0.078,0.035,0.153,0.069,0.23,0.105c0.067-0.299,0.039-0.529,0.014-0.738c0.075-0.027,0.159,0.229,0.235,0.2
			c0.162,0.663-0.18,0.978-0.168,1.785c0.007,0.465,1.88,3.327,1.882,4.215c1.263,0.778,0.937,1.218,1.598,1.738
			c0.495,0.391,0.917,0.573,1.273,0.793c0.692-0.371,1.199-0.573,1.869-0.726c0.067-1.963-0.727-1.914-0.086-3.299
			c0.224-0.5,0.519-0.886,1.143-0.928v-0.004h0.001l0,0c0.01,0.002,0.02,0.002,0.031,0.002c0.01,0,0.021,0,0.031-0.002l0,0l0,0
			v0.004c0.626,0.042,0.921,0.428,1.143,0.928c0.643,1.385-0.151,1.336-0.084,3.299c0.67,0.151,1.176,0.354,1.869,0.726
			c0.356-0.22,0.777-0.402,1.272-0.793c0.662-0.521,0.335-0.96,1.599-1.738c0.001-0.888,1.875-3.75,1.882-4.215
			c0.012-0.808-0.331-1.122-0.168-1.785c0.074,0.028,0.159-0.228,0.233-0.2c-0.024,0.209-0.052,0.439,0.015,0.738
			c0.076-0.036,0.154-0.07,0.229-0.105c0.381-0.53,0.25-0.897,0.317-1.541c0.063,0.004,0.01-0.33,0.189,0.006
			C352.75,289.18,352.788,289.619,352.737,290.069z M335.531,298.852c-1.58,1.774-2.587,4.07-2.733,6.597
			c1.485-1.175,3.282-1.763,5.08-1.763C336.606,302.415,335.75,300.73,335.531,298.852z M330.442,300.607
			c0.067,1.58,0.634,3.141,1.701,4.427c0.217-2.405,1.171-4.599,2.634-6.353C333.112,298.836,331.606,299.539,330.442,300.607z
			 M328.035,306.084c0,1.807,0.643,3.459,1.712,4.748c0.222-1.736,1-3.413,2.333-4.747c0,0,0-0.001,0.001-0.001
			c-1.333-1.333-2.112-3.011-2.334-4.744C328.677,302.626,328.035,304.281,328.035,306.084z M334.777,313.49
			c-1.463-1.753-2.417-3.947-2.634-6.354c-1.067,1.285-1.634,2.849-1.701,4.426C331.606,312.631,333.112,313.334,334.777,313.49z
			 M332.614,317.137c1.276,1.277,2.901,1.992,4.569,2.145c-1.07-1.383-1.708-3.119-1.708-5.005c-1.886,0-3.624-0.636-5.009-1.707
			C330.623,314.236,331.338,315.861,332.614,317.137z M337.878,308.486c-1.798,0-3.595-0.59-5.08-1.764
			c0.146,2.525,1.154,4.822,2.733,6.598C335.75,311.438,336.606,309.754,337.878,308.486z M337.03,297.456
			c-0.204,0.158-0.402,0.322-0.595,0.492c0.417,0.049,0.825,0.129,1.221,0.237l1.007,1.178c-0.738-0.352-1.543-0.583-2.391-0.674
			c0.221,2.068,1.291,3.886,2.854,5.093c0.593,0.09,1.179,0.247,1.744,0.468c-0.061,0.41-0.16,0.824-0.255,1.246
			c-0.64-0.258-1.24-0.593-1.788-0.996c-1.959-0.25-4,0.277-5.618,1.585c1.619,1.308,3.659,1.835,5.618,1.585
			c0.479-0.354,0.997-0.652,1.546-0.895c-0.05,0.431-0.059,0.871,0.017,1.314c-0.415,0.135-0.837,0.232-1.262,0.297
			c-1.564,1.209-2.634,3.022-2.855,5.092c1.662-0.176,3.16-0.899,4.311-1.986c0.067,0.275,0.135,0.557,0.202,0.833
			c-1.201,1.022-2.7,1.703-4.35,1.896c1.316,1.172,2.919,2.027,4.69,2.451c-0.007,0.246-0.011,0.48-0.008,0.699
			c-1.817-0.408-3.472-1.246-4.854-2.396c0.156,1.662,0.859,3.17,1.93,4.334c1.06-0.045,2.111-0.314,3.077-0.812
			c0.067,0.219,0.156,0.461,0.258,0.717c-0.827,0.41-1.708,0.674-2.606,0.787c0.994,0.826,2.205,1.396,3.535,1.613
			c0.056,0.184,0.102,0.355,0.134,0.52c-0.036,0.096-0.05,0.18-0.056,0.256c-1.808-0.25-3.428-1.09-4.659-2.32
			c-2.097,0-4.195-0.799-5.796-2.398c-1.6-1.6-2.4-3.695-2.4-5.791c-1.483-1.484-2.401-3.531-2.401-5.795
			c0-2.262,0.917-4.31,2.401-5.792c0-2.096,0.8-4.192,2.401-5.79c0.873-0.875,1.895-1.508,2.983-1.904
			c0.052,0.24,0.11,0.488,0.174,0.738c-0.957,0.363-1.854,0.928-2.623,1.697c-1.277,1.277-1.992,2.9-2.147,4.566
			c1.384-1.069,3.122-1.707,5.008-1.707c0-0.881,0.14-1.729,0.396-2.524c0.061,0.144,0.12,0.265,0.175,0.356
			c0.113,0.189,0.229,0.396,0.348,0.609c-0.06,0.281-0.104,0.568-0.132,0.86c0.14-0.115,0.282-0.228,0.426-0.336
			C336.799,297.057,336.914,297.258,337.03,297.456z M339.099,296.203c-0.106-0.159-0.253-0.329-0.495-0.521
			c1.029-0.502,2.147-0.856,3.321-1.033c-0.029,0.25,0.011,0.455,0.073,0.68C340.979,295.485,340.005,295.783,339.099,296.203z
			 M350.159,292.887c0.013,0.018,0.027,0.035,0.04,0.053c-0.132,0.248-0.266,0.502-0.391,0.748c-0.2-0.291-0.419-0.565-0.658-0.824
			c-1.36,0.059-2.706,0.486-3.875,1.283c-0.031-0.082-0.068-0.17-0.113-0.266c-0.067-0.15-0.141-0.291-0.229-0.414
			c1.066-0.709,2.262-1.143,3.485-1.3c-1.288-1.069-2.943-1.713-4.748-1.713c-1.806,0-3.46,0.644-4.749,1.713
			c1.221,0.157,2.413,0.589,3.477,1.293c-0.089,0.126-0.164,0.269-0.232,0.421c-0.043,0.094-0.08,0.18-0.11,0.26
			c-1.168-0.795-2.51-1.223-3.865-1.277c-0.241,0.263-0.463,0.541-0.665,0.835c-0.125-0.247-0.259-0.501-0.391-0.748
			c0.016-0.021,0.031-0.042,0.047-0.062c-0.026,0.004-0.05,0.004-0.075,0.008c-0.134-0.25-0.266-0.491-0.381-0.715
			c0.381-0.051,0.766-0.08,1.149-0.08c1.482-1.481,3.532-2.398,5.795-2.398s4.313,0.917,5.795,2.398c0.38,0,0.761,0.027,1.138,0.08
			c-0.116,0.222-0.247,0.463-0.38,0.713C350.202,292.893,350.18,292.891,350.159,292.887z M348.732,295.678
			c-0.242,0.192-0.389,0.362-0.498,0.521c-0.907-0.419-1.881-0.718-2.902-0.872c0.062-0.229,0.102-0.43,0.073-0.682
			C346.583,294.823,347.7,295.176,348.732,295.678z M357.595,301.338c-0.222,1.735-0.999,3.413-2.333,4.746l0,0
			c1.334,1.333,2.11,3.012,2.334,4.748c1.07-1.289,1.712-2.941,1.712-4.748C359.309,304.281,358.667,302.626,357.595,301.338z
			 M352.565,298.682c1.464,1.754,2.417,3.947,2.634,6.354c1.068-1.286,1.635-2.848,1.701-4.43
			C355.736,299.539,354.23,298.836,352.565,298.682z M351.812,298.852c-0.22,1.879-1.075,3.563-2.346,4.834
			c1.797,0,3.594,0.588,5.079,1.761C354.399,302.922,353.392,300.626,351.812,298.852z M349.466,308.486
			c1.27,1.27,2.126,2.953,2.346,4.834c1.579-1.775,2.587-4.071,2.733-6.598C353.061,307.896,351.263,308.486,349.466,308.486z
			 M356.901,311.562c-0.067-1.578-0.634-3.141-1.702-4.428c-0.216,2.406-1.17,4.603-2.634,6.354
			C354.23,313.334,355.736,312.631,356.901,311.562z M350.159,319.283c1.667-0.154,3.293-0.869,4.569-2.146
			c1.277-1.275,1.992-2.898,2.146-4.565c-1.384,1.071-3.122,1.707-5.007,1.707l0,0C351.868,316.162,351.23,317.898,350.159,319.283z
			 M357.664,311.879c0,2.096-0.8,4.191-2.401,5.791c-1.6,1.6-3.698,2.398-5.796,2.398c-1.233,1.234-2.857,2.074-4.671,2.322
			c-0.006-0.076-0.02-0.162-0.056-0.258c0.032-0.162,0.077-0.334,0.132-0.516c1.335-0.217,2.551-0.791,3.548-1.617
			c-0.9-0.113-1.787-0.379-2.615-0.793c0.101-0.258,0.189-0.5,0.256-0.715c0.969,0.498,2.025,0.771,3.089,0.814
			c1.069-1.164,1.773-2.67,1.928-4.334c-1.386,1.154-3.044,1.992-4.866,2.4c0.002-0.219-0.001-0.453-0.009-0.699
			c1.776-0.422,3.382-1.281,4.703-2.455c-1.654-0.191-3.158-0.879-4.36-1.906c0.068-0.275,0.134-0.555,0.203-0.832
			c1.151,1.093,2.653,1.82,4.319,1.998c-0.22-2.068-1.29-3.885-2.853-5.092c-0.431-0.064-0.857-0.166-1.276-0.302
			c0.075-0.446,0.066-0.885,0.015-1.315c0.555,0.242,1.077,0.545,1.559,0.897c1.959,0.251,4-0.278,5.62-1.585
			c-1.62-1.307-3.66-1.834-5.62-1.584c-0.552,0.406-1.155,0.742-1.799,1c-0.095-0.42-0.195-0.834-0.255-1.245
			c0.568-0.224,1.157-0.381,1.756-0.473c1.563-1.207,2.633-3.021,2.853-5.093c-0.855,0.09-1.668,0.328-2.413,0.684l1.013-1.184
			c0.401-0.11,0.814-0.19,1.237-0.242c-0.195-0.174-0.397-0.338-0.604-0.498c0.118-0.199,0.232-0.399,0.342-0.598
			c0.148,0.11,0.293,0.228,0.435,0.344c-0.027-0.299-0.073-0.59-0.135-0.877c0.117-0.209,0.229-0.407,0.339-0.594
			c0.057-0.096,0.12-0.225,0.181-0.373c0.262,0.799,0.403,1.652,0.403,2.541l0,0c1.886,0,3.623,0.637,5.007,1.705
			c-0.155-1.664-0.871-3.287-2.146-4.564c-0.772-0.771-1.675-1.34-2.636-1.7c0.064-0.251,0.122-0.501,0.174-0.741
			c1.093,0.396,2.119,1.031,2.995,1.909c1.601,1.599,2.399,3.694,2.401,5.791c1.483,1.481,2.399,3.53,2.399,5.792
			C360.063,308.348,359.146,310.395,357.664,311.879z"/>
	</g>
</g>
<g enable-background="new    ">
	<path fill="#FFFFFF" d="M270.172,300.537v2.467h-5.832v2.717h5.544v2.467h-5.544v4.932h-2.808v-12.582H270.172z"/>
	<path fill="#FFFFFF" d="M280.828,313.119l-1.17-2.717h-5.274l-1.17,2.717h-2.988l5.436-12.582h2.718l5.436,12.582H280.828z
		 M277.03,304.281l-1.584,3.654h3.15L277.03,304.281z"/>
	<path fill="#FFFFFF" d="M289.144,308.547l3.204-8.01h3.042l-5.058,12.582h-2.376l-5.058-12.582h3.042L289.144,308.547z"/>
	<path fill="#FFFFFF" d="M307.18,311.383c-1.272,1.242-2.838,1.863-4.698,1.863c-1.86,0-3.426-0.621-4.698-1.863
		s-1.908-2.787-1.908-4.635s0.636-3.393,1.908-4.635s2.838-1.863,4.698-1.863c1.86,0,3.426,0.621,4.698,1.863
		s1.908,2.787,1.908,4.635S308.452,310.141,307.18,311.383z M306.226,306.756c0-1.121-0.36-2.078-1.08-2.871
		c-0.72-0.791-1.605-1.188-2.655-1.188c-1.05,0-1.935,0.396-2.655,1.188c-0.72,0.793-1.08,1.75-1.08,2.871
		c0,1.123,0.36,2.076,1.08,2.863c0.72,0.785,1.604,1.178,2.655,1.178c1.05,0,1.935-0.393,2.655-1.178
		C305.866,308.832,306.226,307.879,306.226,306.756z"/>
	<path fill="#FFFFFF" d="M321.669,304.713c0,2.018-0.798,3.318-2.394,3.906l3.186,4.5h-3.456l-2.79-4.014h-1.944v4.014h-2.808
		v-12.582h4.77c1.956,0,3.351,0.33,4.185,0.99S321.669,303.25,321.669,304.713z M318.286,306.207
		c0.348-0.311,0.522-0.807,0.522-1.484s-0.18-1.143-0.54-1.395s-0.99-0.379-1.89-0.379h-2.106v3.727h2.052
		C317.283,306.676,317.938,306.52,318.286,306.207z"/>
</g>
<line fill="none" x1="252.109" y1="299.998" x2="540.141" y2="299.998"/>
<g enable-background="new    ">
	<path fill="#FFFFFF" d="M373.504,300.771v2.467h-5.832v2.717h5.544v2.467h-5.544v4.932h-2.808v-12.582H373.504z"/>
	<path fill="#FFFFFF" d="M375.88,300.771h2.808v12.582h-2.808V300.771z"/>
	<path fill="#FFFFFF" d="M390.856,300.771v2.502h-6.264v2.592h5.634v2.395h-5.634v2.609h6.462v2.484h-9.27v-12.582H390.856z"/>
	<path fill="#FFFFFF" d="M393.555,313.354v-12.582h2.808v10.08h5.364v2.502H393.555z"/>
	<path fill="#FFFFFF" d="M413.392,302.42c1.2,1.098,1.8,2.625,1.8,4.58c0,1.957-0.585,3.504-1.755,4.645s-2.955,1.709-5.354,1.709
		h-4.303v-12.582h4.446C410.469,300.771,412.191,301.32,413.392,302.42z M411.33,309.898c0.69-0.648,1.035-1.59,1.035-2.826
		s-0.345-2.188-1.035-2.854c-0.689-0.666-1.748-0.998-3.177-0.998h-1.565v7.648h1.781
		C409.653,310.869,410.641,310.547,411.33,309.898z"/>
	<path fill="#FFFFFF" d="M420.475,303.283c-0.27,0.223-0.405,0.516-0.405,0.881c0,0.367,0.165,0.658,0.495,0.873
		c0.33,0.217,1.092,0.473,2.286,0.766c1.194,0.295,2.12,0.736,2.78,1.324s0.99,1.445,0.99,2.572c0,1.129-0.423,2.043-1.269,2.746
		c-0.847,0.701-1.96,1.053-3.339,1.053c-1.992,0-3.787-0.738-5.383-2.215l1.674-2.051c1.356,1.188,2.611,1.781,3.763,1.781
		c0.516,0,0.921-0.111,1.215-0.332c0.294-0.223,0.441-0.523,0.441-0.9c0-0.379-0.156-0.678-0.468-0.9
		c-0.312-0.223-0.931-0.447-1.854-0.676c-1.464-0.348-2.535-0.801-3.213-1.357c-0.679-0.559-1.017-1.434-1.017-2.629
		c0-1.193,0.428-2.115,1.287-2.764c0.857-0.646,1.928-0.971,3.213-0.971c0.84,0,1.68,0.145,2.52,0.432s1.572,0.695,2.195,1.225
		l-1.422,2.051c-1.092-0.828-2.22-1.242-3.383-1.242C421.113,302.949,420.744,303.061,420.475,303.283z"/>
</g>
</svg>
