<?xml version="1.0" encoding="utf-8"?>
<!-- Generator: Adobe Illustrator 16.0.0, SVG Export Plug-In . SVG Version: 6.00 Build 0)  -->
<!DOCTYPE svg PUBLIC "-//W3C//DTD SVG 1.1//EN" "http://www.w3.org/Graphics/SVG/1.1/DTD/svg11.dtd">
<svg version="1.1" id="Layer_1" xmlns="http://www.w3.org/2000/svg" xmlns:xlink="http://www.w3.org/1999/xlink" x="0px" y="0px"
	 width="792px" height="612px" viewBox="0 0 792 612" enable-background="new 0 0 792 612" xml:space="preserve">
<g>
	<defs>
		<path id="SVGID_1_" d="M383.969,307.381c-0.498,0.723-0.146,2.025,0,3.211C384.116,309.406,384.467,308.104,383.969,307.381z
			 M383.969,318.715c0.245-2.336,0.332-4.861,0-6.752C383.637,313.854,383.723,316.379,383.969,318.715z M394.576,283.402
			c-0.219,0.391-0.439,0.781-0.658,1.172c-0.009,1.049-0.854,4.488-1.42,5.441c-0.351,0.596-0.734,1.314-1.15,2.025l-2.396,2.797
			c0,0.006,0.001,0.008,0.003,0.012c0,0-1.427,1.18-1.831,2.701c-1.042,2.193,0.709,4.451,0.297,6.924
			c-0.065,1.285-0.132,2.57-0.197,3.855c-0.264,1.09-0.528,2.178-0.792,3.264c0.033,1.484,0.222,3.389,0.099,4.451
			c-0.124,1.062-1.392,3.365-1.683,4.846c0.132,0.363,0.015,0.564,0.118,0.848c0.115,2.479-0.26,2.846-0.859,3.41h-0.1h-0.074
			h-0.099c-0.599-0.564-0.974-0.932-0.859-3.41c0.103-0.283-0.016-0.484,0.118-0.848c-0.292-1.48-1.56-3.783-1.683-4.846
			c-0.125-1.062,0.065-2.967,0.099-4.451c-0.264-1.086-0.528-2.174-0.792-3.264c-0.065-1.285-0.132-2.57-0.197-3.855
			c-0.412-2.473,1.339-4.73,0.296-6.924c-0.402-1.521-1.829-2.701-1.829-2.701c0.001-0.004,0.003-0.006,0.003-0.012l-2.396-2.797
			c-0.418-0.711-0.799-1.43-1.15-2.025c-0.566-0.953-1.413-4.393-1.42-5.441c-0.219-0.391-0.44-0.781-0.659-1.172
			c-0.058-0.525-0.013-1.041,0.638-2.102c0.209-0.395,0.148-0.004,0.222-0.008c0.076,0.752-0.075,1.182,0.369,1.803
			c0.091,0.041,0.18,0.082,0.27,0.123c0.079-0.35,0.045-0.619,0.016-0.863c0.087-0.031,0.186,0.268,0.274,0.234
			c0.19,0.775-0.21,1.143-0.197,2.088c0.008,0.543,2.199,3.889,2.2,4.928c1.477,0.91,1.096,1.422,1.869,2.031
			c0.579,0.457,1.072,0.672,1.488,0.928c0.81-0.434,1.401-0.67,2.185-0.848c0.079-2.295-0.85-2.238-0.1-3.857
			c0.261-0.584,0.606-1.035,1.336-1.084v-0.004h0.001l0,0c0.011,0.002,0.023,0.002,0.036,0.002c0.012,0,0.024,0,0.036-0.002l0,0l0,0
			v0.004c0.731,0.049,1.077,0.5,1.336,1.084c0.751,1.619-0.177,1.562-0.099,3.857c0.784,0.178,1.375,0.414,2.185,0.848
			c0.416-0.256,0.909-0.471,1.487-0.928c0.774-0.609,0.392-1.121,1.87-2.031c0.001-1.039,2.192-4.385,2.201-4.928
			c0.013-0.945-0.387-1.312-0.197-2.088c0.087,0.033,0.186-0.266,0.273-0.234c-0.028,0.244-0.061,0.514,0.017,0.863
			c0.089-0.041,0.18-0.082,0.269-0.123c0.445-0.621,0.293-1.051,0.37-1.803c0.074,0.004,0.013-0.387,0.222,0.008
			C394.589,282.361,394.634,282.877,394.576,283.402z M374.458,293.67c-1.847,2.076-3.025,4.76-3.195,7.713
			c1.736-1.373,3.837-2.061,5.939-2.061C375.716,297.838,374.715,295.867,374.458,293.67z M368.509,295.725
			c0.078,1.846,0.741,3.67,1.989,5.174c0.254-2.812,1.37-5.377,3.08-7.428C371.631,293.652,369.87,294.475,368.509,295.725z
			 M365.694,302.127c0,2.111,0.752,4.045,2.002,5.551c0.26-2.029,1.169-3.99,2.728-5.549c0,0,0-0.002,0.001-0.002
			c-1.56-1.559-2.469-3.52-2.729-5.549C366.446,298.084,365.694,300.018,365.694,302.127z M373.578,310.785
			c-1.71-2.051-2.826-4.615-3.08-7.43c-1.248,1.504-1.911,3.33-1.989,5.176C369.87,309.781,371.631,310.604,373.578,310.785z
			 M371.049,315.049c1.493,1.492,3.393,2.328,5.342,2.51c-1.252-1.619-1.997-3.648-1.997-5.854c-2.205,0-4.236-0.744-5.856-1.996
			C368.72,311.658,369.557,313.557,371.049,315.049z M377.202,304.934c-2.102,0-4.203-0.688-5.939-2.061
			c0.17,2.953,1.349,5.637,3.195,7.713C374.715,308.387,375.716,306.418,377.202,304.934z M376.212,292.039
			c-0.239,0.186-0.471,0.377-0.696,0.576c0.488,0.057,0.965,0.15,1.428,0.277l1.178,1.377c-0.863-0.41-1.805-0.682-2.795-0.787
			c0.258,2.418,1.509,4.541,3.336,5.953c0.693,0.105,1.378,0.289,2.04,0.547c-0.071,0.48-0.187,0.965-0.299,1.457
			c-0.749-0.301-1.449-0.693-2.09-1.164c-2.291-0.293-4.676,0.324-6.569,1.854c1.893,1.527,4.278,2.145,6.569,1.852
			c0.56-0.412,1.165-0.762,1.808-1.045c-0.058,0.504-0.068,1.018,0.019,1.537c-0.485,0.156-0.978,0.271-1.476,0.348
			c-1.829,1.412-3.08,3.533-3.338,5.953c1.942-0.207,3.695-1.053,5.04-2.324c0.079,0.324,0.158,0.65,0.236,0.975
			c-1.404,1.195-3.158,1.992-5.086,2.217c1.539,1.369,3.414,2.369,5.483,2.865c-0.008,0.287-0.013,0.562-0.01,0.816
			c-2.124-0.477-4.059-1.455-5.675-2.801c0.182,1.945,1.004,3.707,2.256,5.066c1.239-0.053,2.468-0.367,3.598-0.947
			c0.078,0.254,0.183,0.537,0.302,0.836c-0.966,0.48-1.996,0.789-3.046,0.922c1.162,0.965,2.578,1.633,4.133,1.887
			c0.065,0.213,0.119,0.416,0.157,0.605c-0.042,0.113-0.058,0.211-0.065,0.301c-2.113-0.293-4.008-1.275-5.447-2.713
			c-2.452,0-4.905-0.936-6.776-2.807c-1.871-1.869-2.806-4.32-2.806-6.771c-1.734-1.734-2.807-4.127-2.807-6.773
			c0-2.645,1.073-5.039,2.807-6.771c0-2.451,0.936-4.902,2.807-6.771c1.021-1.021,2.215-1.762,3.487-2.227
			c0.061,0.281,0.129,0.572,0.203,0.865c-1.119,0.424-2.167,1.084-3.067,1.984c-1.493,1.492-2.329,3.391-2.51,5.34
			c1.619-1.252,3.65-1.996,5.855-1.996c0-1.031,0.164-2.023,0.463-2.953c0.071,0.168,0.14,0.309,0.205,0.418
			c0.132,0.223,0.267,0.463,0.406,0.713c-0.069,0.328-0.122,0.664-0.154,1.006c0.163-0.135,0.33-0.266,0.498-0.393
			C375.941,291.572,376.075,291.807,376.212,292.039z M378.629,290.574c-0.125-0.186-0.296-0.385-0.579-0.609
			c1.204-0.588,2.511-1.002,3.883-1.209c-0.034,0.293,0.013,0.531,0.085,0.795C380.827,289.734,379.69,290.082,378.629,290.574z
			 M391.562,286.697c0.016,0.02,0.032,0.041,0.046,0.061c-0.154,0.289-0.311,0.586-0.457,0.875c-0.233-0.34-0.49-0.662-0.769-0.965
			c-1.59,0.068-3.164,0.568-4.53,1.502c-0.036-0.096-0.08-0.199-0.132-0.311c-0.079-0.178-0.164-0.342-0.267-0.484
			c1.246-0.83,2.645-1.336,4.075-1.52c-1.506-1.25-3.441-2.002-5.552-2.002c-2.111,0-4.046,0.752-5.552,2.002
			c1.427,0.184,2.821,0.688,4.065,1.512c-0.104,0.146-0.192,0.312-0.271,0.492c-0.051,0.107-0.093,0.209-0.129,0.303
			c-1.365-0.93-2.935-1.428-4.519-1.494c-0.281,0.307-0.541,0.633-0.777,0.977c-0.146-0.289-0.303-0.586-0.457-0.875
			c0.019-0.023,0.036-0.049,0.055-0.072c-0.031,0.004-0.06,0.006-0.088,0.01c-0.157-0.293-0.311-0.576-0.446-0.836
			c0.446-0.061,0.896-0.094,1.344-0.094c1.733-1.732,4.13-2.805,6.776-2.805s5.042,1.072,6.776,2.805
			c0.444,0,0.889,0.031,1.33,0.094c-0.136,0.258-0.289,0.541-0.445,0.834C391.611,286.703,391.586,286.701,391.562,286.697z
			 M389.894,289.959c-0.283,0.227-0.456,0.426-0.582,0.609c-1.061-0.49-2.199-0.838-3.393-1.02c0.072-0.266,0.119-0.502,0.085-0.797
			C387.38,288.959,388.687,289.373,389.894,289.959z M400.256,296.576c-0.26,2.031-1.168,3.992-2.728,5.551l0,0
			c1.56,1.559,2.468,3.521,2.729,5.551c1.25-1.506,2.001-3.439,2.001-5.551C402.259,300.018,401.508,298.084,400.256,296.576z
			 M394.375,293.471c1.712,2.051,2.827,4.615,3.081,7.43c1.248-1.504,1.911-3.33,1.988-5.178
			C398.082,294.475,396.321,293.652,394.375,293.471z M393.494,293.67c-0.257,2.197-1.256,4.168-2.743,5.652
			c2.102,0,4.203,0.688,5.939,2.059C396.519,298.43,395.341,295.746,393.494,293.67z M390.751,304.934
			c1.485,1.484,2.486,3.453,2.743,5.652c1.847-2.076,3.024-4.76,3.196-7.713C394.954,304.246,392.853,304.934,390.751,304.934z
			 M399.445,308.531c-0.079-1.846-0.742-3.672-1.99-5.176c-0.253,2.812-1.369,5.379-3.081,7.43
			C396.321,310.604,398.082,309.781,399.445,308.531z M391.562,317.559c1.95-0.182,3.85-1.018,5.343-2.51s2.328-3.391,2.509-5.34
			c-1.619,1.252-3.649,1.996-5.854,1.996l0,0C393.56,313.91,392.814,315.939,391.562,317.559z M400.336,308.9
			c0,2.451-0.936,4.902-2.808,6.771c-1.871,1.871-4.324,2.807-6.776,2.807c-1.442,1.441-3.341,2.424-5.462,2.715
			c-0.007-0.09-0.023-0.189-0.065-0.303c0.038-0.189,0.09-0.391,0.155-0.602c1.561-0.254,2.982-0.924,4.148-1.891
			c-1.053-0.133-2.089-0.443-3.058-0.928c0.119-0.301,0.222-0.584,0.3-0.836c1.133,0.582,2.367,0.9,3.612,0.953
			c1.25-1.359,2.073-3.121,2.254-5.066c-1.62,1.35-3.56,2.328-5.689,2.805c0.003-0.254-0.001-0.529-0.01-0.816
			c2.076-0.494,3.955-1.498,5.498-2.869c-1.934-0.225-3.692-1.027-5.098-2.229c0.079-0.324,0.157-0.65,0.237-0.975
			c1.346,1.277,3.103,2.129,5.051,2.336c-0.258-2.418-1.508-4.541-3.336-5.953c-0.503-0.076-1.002-0.193-1.491-0.352
			c0.087-0.521,0.077-1.035,0.018-1.539c0.648,0.283,1.259,0.637,1.823,1.051c2.291,0.293,4.676-0.326,6.57-1.854
			c-1.895-1.527-4.28-2.145-6.57-1.852c-0.646,0.475-1.351,0.867-2.104,1.168c-0.111-0.49-0.228-0.975-0.299-1.455
			c0.665-0.262,1.354-0.445,2.053-0.553c1.828-1.412,3.079-3.533,3.336-5.953c-1,0.105-1.951,0.383-2.821,0.799l1.185-1.383
			c0.469-0.131,0.952-0.225,1.446-0.283c-0.228-0.203-0.464-0.396-0.707-0.584c0.138-0.232,0.271-0.467,0.4-0.699
			c0.173,0.131,0.343,0.266,0.508,0.402c-0.032-0.348-0.085-0.689-0.158-1.025c0.137-0.244,0.269-0.477,0.396-0.693
			c0.067-0.111,0.14-0.262,0.212-0.438c0.306,0.936,0.472,1.934,0.472,2.973l0,0c2.205,0,4.235,0.744,5.854,1.994
			c-0.182-1.947-1.018-3.846-2.509-5.338c-0.904-0.904-1.958-1.566-3.082-1.988c0.074-0.293,0.143-0.586,0.203-0.867
			c1.278,0.465,2.478,1.207,3.502,2.232c1.872,1.869,2.806,4.32,2.808,6.771c1.732,1.732,2.805,4.127,2.805,6.771
			C403.141,304.773,402.068,307.166,400.336,308.9z"/>
	</defs>
	<use xlink:href="#SVGID_1_"  overflow="visible" fill="#FFFFFF"/>
	<clipPath id="SVGID_2_">
		<use xlink:href="#SVGID_1_"  overflow="visible"/>
	</clipPath>
</g>
<rect x="271.796" y="292" fill="none" width="253.558" height="38"/>
<text transform="matrix(1 0 0 1 271.7959 308.3242)"><tspan x="0" y="0" fill="#FFFFFF" font-family="'Montserrat-Regular'" font-size="20" letter-spacing="3">FAVOR</tspan><tspan x="89.979" y="0" fill="#FFFFFF" font-family="'Montserrat-Regular'" font-size="22" letter-spacing="3">     </tspan><tspan x="139.589" y="0" fill="#FFFFFF" font-family="'Montserrat-Regular'" font-size="20" letter-spacing="3">FIELDS</tspan></text>
</svg>
