<?xml version="1.0" encoding="utf-8"?>
<!-- Generator: Adobe Illustrator 16.0.0, SVG Export Plug-In . SVG Version: 6.00 Build 0)  -->
<!DOCTYPE svg PUBLIC "-//W3C//DTD SVG 1.1//EN" "http://www.w3.org/Graphics/SVG/1.1/DTD/svg11.dtd">
<svg version="1.1" id="Layer_1" xmlns="http://www.w3.org/2000/svg" xmlns:xlink="http://www.w3.org/1999/xlink" x="0px" y="0px"
	 width="792px" height="612px" viewBox="0 0 792 612" enable-background="new 0 0 792 612" xml:space="preserve">
<g>
	<g>
		<path id="SVGID_1_" fill="#FFFFFF" d="M341.152,267.696c-1.609,2.336-0.471,6.549,0,10.382
			C341.628,274.245,342.762,270.033,341.152,267.696z M341.152,304.345c0.792-7.554,1.073-15.72,0-21.833
			C340.08,288.625,340.357,296.792,341.152,304.345z M375.451,190.159c-0.709,1.265-1.419,2.526-2.128,3.791
			c-0.029,3.391-2.762,14.511-4.592,17.593c-1.135,1.926-2.373,4.249-3.718,6.548l-7.748,9.044c0,0.019,0.003,0.026,0.01,0.039
			c0,0-4.615,3.815-5.921,8.733c-3.37,7.092,2.292,14.393,0.96,22.39c-0.21,4.154-0.426,8.31-0.636,12.465
			c-0.854,3.524-1.708,7.042-2.561,10.553c0.106,4.8,0.717,10.96,0.32,14.393c-0.401,3.436-4.501,10.881-5.442,15.668
			c0.426,1.175,0.047,1.825,0.381,2.744c0.373,8.015-0.84,9.202-2.777,11.027h-0.324h-0.238h-0.321
			c-1.937-1.825-3.15-3.016-2.777-11.027c0.333-0.915-0.052-1.565,0.381-2.744c-0.944-4.783-5.043-12.229-5.441-15.668
			c-0.404-3.433,0.21-9.593,0.319-14.393c-0.853-3.511-1.707-7.029-2.561-10.553c-0.21-4.156-0.426-8.311-0.636-12.465
			c-1.333-7.997,4.329-15.294,0.957-22.39c-1.3-4.918-5.915-8.733-5.915-8.733c0.003-0.013,0.009-0.021,0.009-0.039l-7.748-9.044
			c-1.352-2.299-2.583-4.625-3.718-6.548c-1.83-3.082-4.569-14.205-4.591-17.593c-0.708-1.265-1.423-2.526-2.131-3.791
			c-0.187-1.697-0.042-3.366,2.063-6.797c0.676-1.275,0.479-0.012,0.718-0.025c0.245,2.431-0.243,3.822,1.192,5.831
			c0.295,0.133,0.583,0.266,0.874,0.396c0.255-1.13,0.146-2,0.052-2.79c0.281-0.1,0.602,0.867,0.886,0.756
			c0.614,2.507-0.679,3.696-0.636,6.753c0.025,1.756,7.11,12.574,7.113,15.934c4.776,2.943,3.545,4.598,6.044,6.568
			c1.873,1.478,3.466,2.172,4.811,3c2.619-1.403,4.531-2.166,7.065-2.742c0.256-7.421-2.747-7.236-0.322-12.472
			c0.843-1.888,1.959-3.346,4.32-3.505v-0.013h0.003l0,0c0.035,0.007,0.074,0.007,0.115,0.007c0.04,0,0.079,0,0.117-0.007l0,0l0,0
			v0.013c2.364,0.16,3.483,1.617,4.32,3.505c2.429,5.235-0.571,5.051-0.319,12.472c2.534,0.576,4.446,1.339,7.064,2.742
			c1.345-0.827,2.94-1.522,4.809-3c2.503-1.971,1.268-3.625,6.047-6.568c0.003-3.36,7.087-14.178,7.116-15.934
			c0.042-3.057-1.25-4.243-0.637-6.753c0.281,0.107,0.602-0.859,0.883-0.756c-0.09,0.79-0.197,1.663,0.055,2.79
			c0.288-0.131,0.581-0.264,0.87-0.396c1.438-2.008,0.947-3.399,1.195-5.831c0.24,0.013,0.042-1.25,0.718,0.025
			C375.492,186.792,375.638,188.461,375.451,190.159z M310.398,223.361c-5.973,6.713-9.781,15.393-10.331,24.94
			c5.613-4.438,12.407-6.663,19.204-6.663C314.465,236.838,311.229,230.466,310.398,223.361z M291.161,230.006
			c0.252,5.968,2.396,11.867,6.432,16.73c0.821-9.093,4.431-17.387,9.96-24.018C301.256,223.303,295.563,225.965,291.161,230.006z
			 M282.059,250.707c0,6.826,2.432,13.08,6.474,17.949c0.841-6.561,3.781-12.901,8.821-17.943c0,0,0-0.006,0.003-0.006
			c-5.043-5.041-7.983-11.382-8.824-17.942C284.49,237.634,282.059,243.888,282.059,250.707z M307.553,278.704
			c-5.529-6.631-9.139-14.924-9.96-24.026c-4.036,4.863-6.18,10.766-6.432,16.738C295.563,275.458,301.256,278.117,307.553,278.704z
			 M299.375,292.491c4.828,4.825,10.972,7.528,17.274,8.116c-4.048-5.232-6.458-11.794-6.458-18.928
			c-7.13,0-13.697-2.406-18.936-6.455C291.845,281.527,294.551,287.666,299.375,292.491z M319.271,259.784
			c-6.797,0-13.591-2.225-19.204-6.665c0.55,9.549,4.361,18.227,10.331,24.94C311.229,270.949,314.465,264.583,319.271,259.784z
			 M316.069,218.087c-0.772,0.602-1.522,1.219-2.25,1.863c1.577,0.183,3.12,0.485,4.617,0.895l3.81,4.453
			c-2.792-1.326-5.837-2.206-9.038-2.545c0.834,7.819,4.879,14.684,10.787,19.25c2.24,0.339,4.456,0.935,6.597,1.769
			c-0.23,1.552-0.605,3.121-0.968,4.711c-2.422-0.973-4.684-2.24-6.757-3.764c-7.408-0.947-15.12,1.048-21.241,5.995
			c6.121,4.939,13.833,6.936,21.241,5.989c1.811-1.333,3.767-2.463,5.847-3.379c-0.188,1.63-0.22,3.292,0.062,4.971
			c-1.568,0.503-3.163,0.876-4.773,1.124c-5.915,4.568-9.959,11.423-10.793,19.251c6.279-0.669,11.948-3.407,16.297-7.516
			c0.254,1.048,0.51,2.1,0.763,3.151c-4.54,3.865-10.212,6.442-16.446,7.168c4.977,4.427,11.04,7.661,17.729,9.265
			c-0.025,0.928-0.043,1.819-0.032,2.64c-6.868-1.544-13.125-4.705-18.352-9.056c0.589,6.287,3.247,11.983,7.294,16.379
			c4.007-0.171,7.981-1.188,11.635-3.063c0.253,0.821,0.592,1.737,0.978,2.703c-3.125,1.554-6.455,2.552-9.851,2.984
			c3.758,3.12,8.336,5.279,13.365,6.101c0.21,0.688,0.384,1.346,0.507,1.955c-0.136,0.366-0.187,0.682-0.21,0.976
			c-6.832-0.947-12.959-4.124-17.612-8.775c-7.929,0-15.862-3.025-21.91-9.076c-6.05-6.044-9.074-13.97-9.074-21.893
			c-5.606-5.608-9.077-13.346-9.077-21.902c0-8.553,3.47-16.294,9.077-21.895c0-7.924,3.027-15.85,9.077-21.894
			c3.301-3.302,7.162-5.697,11.275-7.202c0.197,0.91,0.417,1.851,0.657,2.798c-3.619,1.371-7.007,3.505-9.917,6.415
			c-4.828,4.825-7.531,10.965-8.117,17.267c5.236-4.048,11.802-6.455,18.933-6.455c0-3.333,0.53-6.541,1.497-9.547
			c0.23,0.543,0.453,1,0.663,1.352c0.428,0.722,0.864,1.497,1.314,2.305c-0.225,1.061-0.395,2.147-0.499,3.252
			c0.527-0.436,1.067-0.859,1.61-1.271C315.193,216.577,315.627,217.337,316.069,218.087z M323.885,213.351
			c-0.404-0.602-0.957-1.246-1.873-1.97c3.893-1.901,8.12-3.24,12.557-3.909c-0.11,0.947,0.041,1.718,0.275,2.57
			C330.993,210.634,327.316,211.759,323.885,213.351z M365.705,200.813c0.052,0.065,0.104,0.132,0.148,0.197
			c-0.498,0.935-1.006,1.895-1.478,2.83c-0.753-1.099-1.583-2.14-2.487-3.12c-5.141,0.22-10.231,1.836-14.647,4.856
			c-0.117-0.309-0.259-0.643-0.426-1.005c-0.255-0.575-0.53-1.105-0.863-1.565c4.029-2.684,8.553-4.32,13.176-4.915
			c-4.87-4.042-11.126-6.473-17.952-6.473s-13.083,2.431-17.954,6.473c4.615,0.595,9.123,2.225,13.146,4.89
			c-0.338,0.473-0.622,1.009-0.878,1.59c-0.164,0.346-0.3,0.676-0.417,0.98c-4.413-3.008-9.49-4.618-14.612-4.832
			c-0.908,0.993-1.75,2.046-2.512,3.159c-0.472-0.935-0.979-1.895-1.478-2.829c0.062-0.074,0.117-0.158,0.178-0.232
			c-0.101,0.012-0.194,0.019-0.286,0.031c-0.507-0.947-1.004-1.863-1.441-2.703c1.441-0.198,2.897-0.305,4.347-0.305
			c5.603-5.601,13.354-9.069,21.91-9.069c8.556,0,16.303,3.466,21.91,9.069c1.435,0,2.875,0.101,4.301,0.305
			c-0.44,0.833-0.935,1.749-1.44,2.696C365.863,200.833,365.782,200.827,365.705,200.813z M360.312,211.361
			c-0.916,0.734-1.475,1.377-1.882,1.969c-3.431-1.583-7.111-2.709-10.972-3.298c0.234-0.859,0.385-1.623,0.275-2.577
			C352.182,208.128,356.408,209.467,360.312,211.361z M393.817,232.758c-0.84,6.567-3.777,12.908-8.82,17.949l0,0
			c5.043,5.042,7.98,11.386,8.823,17.949c4.042-4.87,6.47-11.12,6.47-17.949C400.294,243.888,397.865,237.634,393.817,232.758z
			 M374.801,222.718c5.536,6.631,9.142,14.922,9.963,24.024c4.036-4.863,6.18-10.768,6.429-16.743
			C386.788,225.965,381.094,223.303,374.801,222.718z M371.953,223.361c-0.832,7.105-4.062,13.478-8.87,18.277
			c6.797,0,13.591,2.223,19.206,6.657C381.732,238.753,377.924,230.074,371.953,223.361z M363.083,259.784
			c4.801,4.798,8.038,11.165,8.87,18.275c5.971-6.713,9.776-15.391,10.335-24.94C376.673,257.56,369.879,259.784,363.083,259.784z
			 M391.196,271.416c-0.255-5.972-2.4-11.875-6.436-16.738c-0.818,9.093-4.427,17.395-9.962,24.026
			C381.094,278.117,386.788,275.458,391.196,271.416z M365.705,300.606c6.306-0.587,12.449-3.291,17.277-8.116
			c4.829-4.825,7.528-10.964,8.112-17.267c-5.235,4.048-11.799,6.455-18.929,6.455l0,0
			C372.166,288.809,369.753,295.371,365.705,300.606z M394.076,272.609c0,7.923-3.025,15.849-9.079,21.893
			c-6.05,6.05-13.982,9.075-21.912,9.075c-4.663,4.661-10.803,7.84-17.661,8.782c-0.022-0.294-0.074-0.612-0.21-0.982
			c0.123-0.609,0.291-1.263,0.5-1.944c5.047-0.821,9.642-2.988,13.413-6.114c-3.404-0.433-6.754-1.434-9.889-3.003
			c0.385-0.973,0.718-1.889,0.971-2.703c3.663,1.882,7.653,2.912,11.679,3.082c4.042-4.396,6.704-10.092,7.288-16.383
			c-5.237,4.367-11.51,7.528-18.396,9.072c0.011-0.821-0.003-1.711-0.032-2.64c6.712-1.598,12.789-4.844,17.778-9.278
			c-6.254-0.726-11.938-3.318-16.485-7.206c0.256-1.048,0.508-2.103,0.766-3.155c4.353,4.13,10.034,6.887,16.333,7.553
			c-0.833-7.818-4.875-14.68-10.787-19.248c-1.626-0.245-3.24-0.624-4.822-1.138c0.281-1.685,0.25-3.346,0.059-4.977
			c2.095,0.916,4.072,2.06,5.896,3.399c7.406,0.947,15.119-1.055,21.244-5.995c-6.127-4.938-13.84-6.937-21.244-5.989
			c-2.089,1.536-4.369,2.804-6.803,3.776c-0.36-1.583-0.738-3.153-0.968-4.705c2.15-0.846,4.378-1.438,6.639-1.787
			c5.912-4.566,9.957-11.425,10.787-19.25c-3.233,0.339-6.309,1.237-9.123,2.583l3.832-4.472c1.518-0.423,3.079-0.728,4.677-0.916
			c-0.737-0.655-1.501-1.281-2.286-1.889c0.445-0.75,0.876-1.509,1.293-2.259c0.559,0.423,1.108,0.86,1.642,1.299
			c-0.103-1.125-0.274-2.228-0.51-3.314c0.442-0.79,0.87-1.542,1.28-2.24c0.216-0.36,0.453-0.848,0.686-1.417
			c0.99,3.027,1.526,6.252,1.526,9.612l0,0c7.129,0,13.694,2.406,18.929,6.448c-0.59-6.295-3.293-12.437-8.112-17.26
			c-2.924-2.924-6.333-5.063-9.967-6.429c0.24-0.948,0.462-1.895,0.657-2.803c4.132,1.503,8.013,3.903,11.325,7.217
			c6.054,6.044,9.072,13.968,9.079,21.894c5.603,5.601,9.069,13.345,9.069,21.895C403.145,259.263,399.678,267.001,394.076,272.609z
			"/>
	</g>
</g>
</svg>
